<svg xmlns="http://www.w3.org/2000/svg" viewBox="0 0 172.31 110.17"><g id="Layer_2" data-name="Layer 2"><g id="Layer_1-2" data-name="Layer 1"><path d="M28.12,30.39V29.23H51v1.16H44.75V52.2H43.67c-.86-3-2.23-4.24-4.32-4.24a6.06,6.06,0,0,0-2.73.86l-3.75,2.23c-2,1.23-5.76,2-9.29,2C11.2,53.07,1.41,41.69,1.41,27.43,1.41,12.75,12.78,0,25.89,0a23.38,23.38,0,0,1,9.5,2.23c1.44.72,2.88,1.66,4.76,1.66s2.44-1,2.52-3.24h1V17.79h-1C42,8.06,35.1,1.22,26,1.22,14.8,1.22,9.9,9,9.9,26.79c0,7.2.43,11.88,1.44,15.91,1.44,5.9,5.84,9.22,12.24,9.22a22.13,22.13,0,0,0,5.26-.72C34.67,49.68,36.4,47,36.4,39.6V30.39Z"/><path d="M78.45,51.77V46.88c-2.67,3.67-5,6.12-9.87,6.12C61,53,58.07,47.74,58.07,41.76V22H53.75V20.81H64.33l-.07,24.05c0,4.32,1.87,6.7,5.19,6.7,5.18,0,9.21-5.33,9.21-12.17V22H72.83V20.81h12V50.62H90v1.15Z"/><path d="M94.65,51.7c.14-2,.14-3.82.14-5.62,0-2.08-.07-4.1-.29-6.4h.94c2.09,8.35,5.76,12,12.1,12,4.17,0,7-2.16,7-5.4,0-3.75-2.09-5-9.94-7.71-7.05-2.37-10.08-5.4-10.08-9.93a8.88,8.88,0,0,1,8.72-9.08c2.44,0,5.18,1,8.13,3a2.54,2.54,0,0,0,.72.28c.65,0,1.3-1,1.59-2.52l.86-.07c0,3.53,0,7,.29,10.66h-1.22c-1.52-6.34-5.33-10.15-10.16-10.15C100.05,20.67,97,23,97,25.78c0,2.45,1.8,4.17,8.93,6.48,8.57,2.74,11.59,5.54,11.59,10.58a9.9,9.9,0,0,1-10.22,10,13.7,13.7,0,0,1-7.56-2.52,6.19,6.19,0,0,0-2.23-1.15c-.94,0-1.66,1.08-1.73,2.52Z"/><path d="M47,60.15H41.58V95.52H47v.84H30.15v-.84h5.32V60.15h-.53L21.87,97.1h-.95L7.85,60.15H7.12V95.52h5.27v.84H0l.05-.84H6.11V60.15H.26v-.84H13.6L24,88.35l10.28-29H47Z"/><path d="M64.62,96.36V92.78c-2,2.68-3.69,4.48-7.22,4.48-5.59,0-7.7-3.85-7.7-8.23V74.54H46.54V73.7h7.75l0,17.6c0,3.16,1.37,4.9,3.79,4.9,3.8,0,6.75-3.9,6.75-8.9V74.54H60.51V73.7h8.8V95.52H73.1v.84Z"/><path d="M74.79,96.36v-.84h3.85v-21h-4v-.84H83v5c1.31-4.06,3.53-5.85,5.85-5.85a4.07,4.07,0,0,1,4.16,4c0,1.74-.9,2.9-2.27,2.9a2.06,2.06,0,0,1-2.1-2c0-.73.36-1.47.36-2.42a1.1,1.1,0,0,0-1.26-1.21,3.13,3.13,0,0,0-2,1.05c-1.37,1.58-2.53,5.17-2.53,8V95.52h4.21v.84Z"/><path d="M94.4,110.17v-.84h3.95V74.44H94.4V73.7h8.54v3.69c2.69-3.53,4.43-4.69,7.12-4.69,5.58,0,10.43,6,10.43,12.75,0,6.32-4.59,11.7-10,11.7-2.85,0-4.8-1.32-7.59-5.11v17.29h4.48v.84ZM115.54,85c0-7.54-1.85-11.18-5.59-11.18-4.59,0-7.17,4-7.17,11.18,0,6.37,3.16,11.22,7.28,11.22C113.8,96.2,115.54,92.62,115.54,85Z"/><path d="M135,96.36v-.84h3.9V78.39c0-2.85-1.37-4.69-3.48-4.69-3.58,0-6.8,4.16-6.8,8.75V95.52h3.8v.84H120.39v-.84h3.53V60.15h-3.53v-.84h8.11L128.56,78c2.21-3.85,4.32-5.27,7.64-5.27,4.32,0,7.48,3.32,7.48,7.85v15h3.48v.84Z"/><path d="M172.31,74.54h-3.85l-8.54,30.25c-.9,3.27-3.16,5.38-5.8,5.38a5.09,5.09,0,0,1-5-4.74,2.53,2.53,0,0,1,2.37-2.64,2.38,2.38,0,0,1,2.21,2.21c0,1-.58,1.85-.58,2.9a1.07,1.07,0,0,0,1.06,1.21c3.21,0,4.21-1.73,7-12.38L150.27,74.54H146V73.7h8.91l8.06,16.55,4.38-15.71h-4.06V73.7h9.07Z"/></g></g></svg>